# xmcd CD database file
#
# Track frame offsets:
#	150
#	16812
#	32775
#	49732
#	65653
#	83240
#	100158
#	116770
#	132032
#	150784
#	167001
#	183758
#
# Disc length: 2725 seconds
#
# Revision: 1
# Processed by: cddbd v1.5.2PL0 Copyright (c) Steve Scherf et al.
# Submitted via: CDex 1.70beta2
#
DISCID=8b0aa30c
DTITLE=松田聖子 - Seiko index
DYEAR=1900
DGENRE=JPop
TTITLE0=青い珊瑚礁
TTITLE1=夏の扉
TTITLE2=SQUALL
TTITLE3=白いパラソル
TTITLE4=いちご畑でつかまえて
TTITLE5=裸足の季節
TTITLE6=赤いスイートピー
TTITLE7=チェリーブラッサム
TTITLE8=風は秋色
TTITLE9=制服
TTITLE10=冬の妖精
TTITLE11=風立ちぬ
EXTD=
EXTT0=
EXTT1=
EXTT2=
EXTT3=
EXTT4=
EXTT5=
EXTT6=
EXTT7=
EXTT8=
EXTT9=
EXTT10=
EXTT11=
PLAYORDER=
